<?xml version="1.0" encoding="UTF-8" standalone="no"?>
<svg
   viewBox="0 -3.268 69.734774 59.423919"
   width="24"
   height="21"
   version="1.1"
   id="svg4"
   sodipodi:docname="bluesky-1.svg"
   xmlns:inkscape="http://www.inkscape.org/namespaces/inkscape"
   xmlns:sodipodi="http://sodipodi.sourceforge.net/DTD/sodipodi-0.dtd"
   xmlns:xlink="http://www.w3.org/1999/xlink"
   xmlns="http://www.w3.org/2000/svg"
   xmlns:svg="http://www.w3.org/2000/svg">
  <defs
     id="defs8">
    <linearGradient
       id="linearGradient3767"
       inkscape:swatch="solid">
      <stop
         style="stop-color:#000000;stop-opacity:1;"
         offset="0"
         id="stop3765" />
    </linearGradient>
    <linearGradient
       inkscape:collect="always"
       xlink:href="#linearGradient3767"
       id="linearGradient3769"
       x1="0"
       y1="28.266432"
       x2="64"
       y2="28.266432"
       gradientUnits="userSpaceOnUse"
       gradientTransform="translate(2.8673849,-2.0359318)" />
  </defs>
  <sodipodi:namedview
     id="namedview6"
     pagecolor="#ffffff"
     bordercolor="#000000"
     borderopacity="0.25"
     inkscape:showpageshadow="2"
     inkscape:pageopacity="0.0"
     inkscape:pagecheckerboard="0"
     inkscape:deskcolor="#d1d1d1"
     showgrid="false" />
  <path
     fill="#0085ff"
     d="m 16.740385,1.7690682 c 7.337,5.527 15.23,16.7319998 18.127,22.7449998 v 15.882 c 0,-0.338 -0.13,0.044 -0.41,0.867 -1.512,4.456 -7.418,21.847 -20.923,7.944 -7.1110001,-7.32 -3.8190001,-14.64 9.125,-16.85 -7.405,1.264 -15.7300001,-0.825 -18.0140001,-9.015 -0.658,-2.356 -1.778,-16.8679998 -1.778,-18.8279998 0,-9.818 8.5790001,-6.732 13.8730001,-2.745 z m 36.254,0 c -7.337,5.527 -15.23,16.7319998 -18.127,22.7449998 v 19.105189 c 0,-0.338 0.13,-3.179189 0.41,-2.356189 1.512,4.456 7.418,21.847 20.923,7.944 7.111,-7.32 3.819,-14.64 -9.125,-16.85 7.405,1.264 15.73,-0.825 18.014,-9.015 0.658,-2.356 1.778,-16.8679998 1.778,-18.8279998 0,-9.818 -8.578,-6.732 -13.873,-2.745 z"
     id="path2"
     style="fill:none;stroke:url(#linearGradient3769);stroke-width:5.73477;stroke-dasharray:none"
     inkscape:export-filename="../Desktop/git/my_blog/content/images_index/bsky.svg"
     inkscape:export-xdpi="1.03"
     inkscape:export-ydpi="1.03"
     sodipodi:nodetypes="cccccccsccccccccsc" />
</svg>
