<svg xmlns="http://www.w3.org/2000/svg" fill="none" viewBox="-1 -1 24 24" id="Instagram-Logo-2--Streamline-Logos.svg" height="24" width="24"><desc>Instagram Logo 2 Streamline Icon: https://streamlinehq.com</desc><path stroke="#000000" stroke-linejoin="round" d="M16.5 5.958333333333333a0.4583333333333333 0.4583333333333333 0 0 1 0 -0.9166666666666666" stroke-width="2"></path><path stroke="#000000" stroke-linejoin="round" d="M16.5 5.958333333333333a0.4583333333333333 0.4583333333333333 0 0 0 0 -0.9166666666666666" stroke-width="2"></path><path stroke="#000000" stroke-linejoin="round" d="M6.416666666666666 11a4.583333333333333 4.583333333333333 0 1 0 9.166666666666666 0 4.583333333333333 4.583333333333333 0 1 0 -9.166666666666666 0" stroke-width="2"></path><path stroke="#000000" d="M15.125 1.375h-8.25a5.5 5.5 0 0 0 -5.5 5.5v8.25a5.5 5.5 0 0 0 5.5 5.5h8.25a5.5 5.5 0 0 0 5.5 -5.5v-8.25a5.5 5.5 0 0 0 -5.5 -5.5Z" stroke-width="2"></path></svg>