<svg xmlns="http://www.w3.org/2000/svg" fill="none" viewBox="-1 -1 24 24" id="Mastodon-Logo-1--Streamline-Logos.svg" height="24" width="24"><desc>Mastodon Logo 1 Streamline Icon: https://streamlinehq.com</desc><path stroke="#000000" stroke-linejoin="round" d="M1.8333333333333333 10.083333333333332c0 10.266666666666666 4.9976666666666665 10.541666666666666 8.25 10.541666666666666s3.845416666666667 -0.5600833333333333 4.583333333333333 -0.86625V18.333333333333332c-3.6666666666666665 0.8799999999999999 -7.791666666666666 0.5875833333333333 -7.791666666666666 -2.2916666666666665h4.583333333333333c2.2916666666666665 0 8.708333333333332 0.18333333333333335 8.708333333333332 -5.958333333333333 0 -8.50025 -4.7547500000000005 -8.708333333333332 -9.166666666666666 -8.708333333333332S1.8333333333333333 1.6197499999999998 1.8333333333333333 10.083333333333332Z" stroke-width="2"></path><path stroke="#000000" stroke-linejoin="round" d="M5.958333333333333 13.291666666666666V7.5625a2.520833333333333 2.520833333333333 0 0 1 5.041666666666666 0m0 0V11m0 -3.4375a2.520833333333333 2.520833333333333 0 1 1 5.041666666666666 0v5.729166666666666" stroke-width="2"></path></svg>